<svg width="324" height="249" viewBox="0 0 324 249" fill="none" xmlns="http://www.w3.org/2000/svg">
<path d="M134.422 0.405957C152.572 -2.20098 171.044 7.87257 174.836 27.0319C176.99 37.9434 171.493 46.1678 165.411 54.6452C171.035 57.0549 179.583 60.5198 180.656 67.238C187.05 107.261 133.915 108.924 107.324 114.016C103.327 114.781 97.0889 118.4 95.8314 121.929C92.1085 132.466 114.594 135.107 120.902 136.081C144.511 138.635 188.971 148.414 180.364 181.663C178.775 187.802 170.947 190.885 165.498 193.056C183.667 219.129 174.885 240.658 144.697 248.231C140.72 248.23 139.218 248.514 135.524 246.887C130.485 240.211 135.329 227.642 133.009 219.019C124.772 188.518 82.3792 189.495 57.8148 185.457C46.9365 183.668 35.2386 180.58 25.6469 175.075C14.1547 168.482 6.21961 158.518 2.7494 145.674C-1.90984 128.377 -1.02231 104.785 8.31581 89.0964C26.3004 58.8785 67.2504 64.5248 96.5228 57.154C149.784 43.7369 127.619 11.7808 134.422 0.405957ZM68.2641 111.53C64.0726 107.396 58.0777 105.655 52.3265 106.897C43.0566 108.901 37.0721 117.948 38.8461 127.283C40.6106 136.619 49.4904 142.837 58.848 141.296C65.3398 140.225 70.6816 135.592 72.6703 129.307C74.6588 123.024 72.9524 116.153 68.2641 111.53ZM30.8519 122.326C29.575 118.591 25.5296 116.581 21.7865 117.818C19.3205 118.632 17.4877 120.712 16.9808 123.264C16.474 125.816 17.3712 128.444 19.3402 130.142C21.3092 131.842 24.0294 132.349 26.476 131.47C30.1895 130.137 32.1385 126.062 30.8519 122.326Z" fill="#940019"/>
<path d="M212.15 5.56555C215.64 5.78533 216.829 6.1022 219.666 8.20911C232.923 18.062 243.811 34.4837 246.355 50.9747C247.857 60.6535 245.975 64.7504 244.767 72.3517C238.908 109.327 177.049 101.769 166.521 116.012L167.097 118.086C171.629 121.207 176.513 119.912 181.62 120.096C217.482 121.38 236.734 87.4315 270.306 84.1857C285.541 82.7118 293.232 90.7643 293.69 105.869C311.733 106.618 315.828 107.19 323.499 124.402C315.896 141.567 311.421 142.022 293.671 142.889C293.612 144.188 293.515 145.483 293.476 146.782C293.203 152.186 290.688 157.229 286.525 160.676C266.503 177.413 226.46 142.555 209.791 134.697C199.878 130.025 186.874 128.924 175.996 128.371C172.126 128.522 169.28 128.288 166.843 131.442C169.758 140.142 199.009 144.205 208.134 145.859C243.148 152.205 257.292 186.486 239.814 216.72C235.701 223.849 222.707 241.106 213.34 243.178C212.238 242.381 211.195 241.75 211.692 240.024C227.981 183.638 205.736 150.079 149.59 135.954C143.546 134.436 122.237 130.608 118.708 124.963C120.901 118.816 138.535 115.216 144.511 113.455C160.399 108.771 176.513 103.637 190.208 94.1388C213.193 78.1888 220.914 54.3696 214.987 27.4103C213.769 21.8934 210.903 10.8294 212.15 5.56555ZM276.476 120.276C274.585 113.932 268.005 110.248 261.62 111.962C257.341 113.114 254.007 116.509 252.944 120.825C251.872 125.143 253.228 129.701 256.483 132.727C259.739 135.752 264.379 136.769 268.59 135.38C274.867 133.314 278.357 126.618 276.476 120.276Z" fill="#940019"/>
</svg>
