<svg xmlns="http://www.w3.org/2000/svg" width="512" height="512" viewBox="148.2 490.1 92.3 92.3">
  <rect fill="#DB5462" x="148.2" y="490.1" width="92.3" height="92.3" rx="19.7" ry="19.7"/>
  <path fill="#fff" d="M208.9,511.9h-9.1c.6,1,1,2.1,1.5,3.2.1.3.2.5.3.8l2.6,6.3c.1.3.2.5.3.8l-21.9.4c0-3.8.2-7.6.3-11.5h-8.6c.2,3.8.3,7.6.4,11.4l-13-.4v5.2l13.1-.4c.2,10.7,0,21.6-.5,32.5h8.6c-.3-10.8-.5-21.7-.4-32.5l21.5.4c-2.5,2.2-6.3,6-10.1,11.9-5.9,9.4-6.3,14.8-3.1,18.1,7.5,8,17.3-4.2,22.7-10.4v.4c1.6,4.3,2.9,8.4,4.1,12.2h9.2c-5.4-12.6-13.9-36.4-18-48.3ZM196.2,552.4c-4.5-4.5,4.9-16.8,11.1-22.2.3.8,3.6,9.8,4.9,13.5v.3c-1.9,1.8-12.1,12.3-16,8.4Z"/>
</svg>
