<svg width="1974" height="266" viewBox="0 0 1974 266" fill="none" xmlns="http://www.w3.org/2000/svg">
<path d="M1893.6 173.1C1880.1 133.8 1865.1 93.6003 1850.1 56.1003C1836.9 91.8003 1821.3 133.8 1807.8 173.1H1893.6ZM1736.1 262.8C1769.4 182.4 1808.1 96.9003 1836 21.6003C1832.7 14.1003 1829.7 6.90029 1825.8 0.300293H1875.3C1897.5 65.1003 1944 194.7 1973.1 262.8H1923.3C1917 242.1 1909.8 219.6 1902 196.5H1800.3C1792.5 220.5 1785.6 243.9 1781.4 262.8H1736.1Z" fill="#361F30"/>
<path d="M1513.5 262.8C1518 175.5 1518.3 87.3003 1513.5 0.300293H1560.3C1558.5 40.2003 1557.3 79.8004 1557 120C1590.3 84.6004 1635.3 25.8003 1653 0.300293H1706.7C1690.2 14.1003 1603.2 107.7 1593 120C1676.4 133.8 1671.3 241.5 1725.9 248.4V261.3C1622.4 284.7 1640.1 145.5 1557 132.3C1557 176.1 1558.2 219.6 1560.3 263.1H1513.5V262.8Z" fill="#361F30"/>
<path d="M1259.1 262.8C1263.3 184.5 1263.6 105.3 1260.3 25.5004L1243.8 0.300293H1304.1L1433.4 201C1434.9 135.3 1433.7 67.2003 1430.4 0.300293H1465.2C1462.2 87.0003 1461.9 174.6 1465.2 262.8H1425C1383.6 195.6 1339.2 125.1 1292.7 61.8003C1291.5 126 1293.6 198 1296 262.8H1258.8H1259.1Z" fill="#361F30"/>
<path d="M1157.7 173.1C1144.2 133.8 1129.2 93.6003 1114.2 56.1003C1101 91.8003 1085.4 133.8 1071.9 173.1H1157.7ZM1000.2 262.8C1033.5 182.4 1072.2 96.9003 1100.1 21.6003C1096.8 14.1003 1093.8 6.90029 1089.9 0.300293H1139.4C1161.6 65.1003 1208.1 194.7 1237.2 262.8H1187.4C1181.1 242.1 1173.9 219.6 1166.1 196.5H1064.4C1056.6 220.5 1049.7 243.9 1045.5 262.8H1000.2Z" fill="#361F30"/>
<path d="M688.195 262.8C697.195 179.1 704.995 76.5003 710.395 0.300293H762.595L835.495 200.1L904.795 0.300293H956.695C961.495 76.8003 971.695 190.5 979.495 262.8H931.195C929.395 189.3 922.495 96.9003 918.295 48.9003H915.295L840.595 262.8H818.095L736.795 48.9003H734.395C729.595 101.7 727.195 201.9 725.695 262.8H688.195Z" fill="#361F30"/>
<path d="M600.598 262.8C605.098 174.3 605.098 86.4003 600.598 0.300293H647.398C644.098 88.2003 644.698 175.8 647.398 262.8H600.598Z" fill="#361F30"/>
<path d="M374.396 262.8C378.896 175.5 379.196 87.3003 374.396 0.300293H421.197C419.397 40.2003 418.196 79.8004 417.896 120C451.196 84.6004 496.196 25.8003 513.896 0.300293H567.597C551.097 14.1003 464.096 107.7 453.896 120C537.296 133.8 532.197 241.5 586.797 248.4V261.3C483.297 284.7 500.996 145.5 417.896 132.3C417.896 176.1 419.097 219.6 421.197 263.1H374.396V262.8Z" fill="#361F30"/>
<path d="M255.3 0H205.8C208.8 5.4 211.5 11.4 214.2 17.4C214.8 18.9 215.4 20.0999 216 21.5999L230.4 56.0999C231 57.5999 231.6 57.5999 232.2 60.5999L113.4 62.6999C113.7 41.9999 114.3 21.2999 115.2 0.299927H68.4C69.6 20.6999 70.2 41.4 70.8 62.1L0 60V88.5L71.4 86.4C72.3 144.6 71.4 203.7 68.4 262.8H115.2C113.4 204 112.5 145.2 113.1 86.1L230.1 88.1999C216.3 100.2 195.9 120.9 175.2 152.7C142.8 203.7 141.3 232.8 158.4 251.4C199.2 295.2 252.3 228.6 281.4 194.7L282.3 196.8C290.1 220.2 297.3 242.7 303.6 263.1H353.4C324 194.7 277.5 65.3999 255.6 0.599945L255.3 0ZM186.6 220.5C162.3 195.9 213.3 129.3 247.2 99.9C249 104.4 267 153.3 273.6 173.1L274.2 174.9C263.4 184.5 207.6 241.8 186.6 220.5Z" fill="#ED475F"/>
</svg>
