<?xml version="1.0" encoding="UTF-8"?>
<svg xmlns="http://www.w3.org/2000/svg" version="1.1" viewBox="0 0 1080 1072.3">
  <defs>
    <style>
      .cls-1 {
        fill: #fff;
      }

      .cls-2 {
        fill: #b71a38;
      }
    </style>
  </defs>
  <!-- Generator: Adobe Illustrator 28.6.0, SVG Export Plug-In . SVG Version: 1.2.0 Build 709)  -->
  <g>
    <g id="_Слой_1" data-name="Слой_1">
      <path class="cls-2" d="M912.2,549.4c-4.5-13.1-9.5-26.5-14.5-39-4.4,11.9-9.6,25.9-14.1,39h28.6ZM859.7,579.3c11.1-26.8,24-55.3,33.3-80.4-1.1-2.5-2.1-4.9-3.4-7.1h16.5c7.4,21.6,22.9,64.8,32.6,87.5h-16.6c-2.1-6.9-4.5-14.4-7.1-22.1h-33.9c-2.6,8-4.9,15.8-6.3,22.1h-15.1Z"/>
      <path class="cls-2" d="M785.5,579.3c1.5-29.1,1.6-58.5,0-87.5h15.6c-.6,13.3-1,26.5-1.1,39.9,11.1-11.8,26.1-31.4,32-39.9h17.9c-5.5,4.6-34.5,35.8-37.9,39.9,27.8,4.6,26.1,40.5,44.3,42.8v4.3c-34.5,7.8-28.6-38.6-56.3-43,0,14.6.4,29.1,1.1,43.6h-15.6Z"/>
      <path class="cls-2" d="M700.7,579.3c1.4-26.1,1.5-52.5.4-79.1l-5.5-8.4h20.1l43.1,66.9c.5-21.9.1-44.6-1-66.9h11.6c-1,28.9-1.1,58.1,0,87.5h-13.4c-13.8-22.4-28.6-45.9-44.1-67-.4,21.4.3,45.4,1.1,67h-12.4Z"/>
      <path class="cls-2" d="M666.9,549.4c-4.5-13.1-9.5-26.5-14.5-39-4.4,11.9-9.6,25.9-14.1,39h28.6ZM614.4,579.3c11.1-26.8,24-55.3,33.3-80.4-1.1-2.5-2.1-4.9-3.4-7.1h16.5c7.4,21.6,22.9,64.8,32.6,87.5h-16.6c-2.1-6.9-4.5-14.4-7.1-22.1h-33.9c-2.6,8-4.9,15.8-6.3,22.1h-15.1Z"/>
      <path class="cls-2" d="M510.4,579.3c3-27.9,5.6-62.1,7.4-87.5h17.4l24.3,66.6,23.1-66.6h17.3c1.6,25.5,5,63.4,7.6,87.5h-16.1c-.6-24.5-2.9-55.3-4.3-71.3h-1l-24.9,71.3h-7.5l-27.1-71.3h-.8c-1.6,17.6-2.4,51-2.9,71.3h-12.5Z"/>
      <path class="cls-2" d="M481.2,579.3c1.5-29.5,1.5-58.8,0-87.5h15.6c-1.1,29.3-.9,58.5,0,87.5h-15.6Z"/>
      <path class="cls-2" d="M405.8,579.3c1.5-29.1,1.6-58.5,0-87.5h15.6c-.6,13.3-1,26.5-1.1,39.9,11.1-11.8,26.1-31.4,32-39.9h17.9c-5.5,4.6-34.5,35.8-37.9,39.9,27.8,4.6,26.1,40.5,44.3,42.8v4.3c-34.5,7.8-28.6-38.6-56.3-43,0,14.6.4,29.1,1.1,43.6h-15.6Z"/>
      <rect class="cls-2" x="148.2" y="490.1" width="92.3" height="92.3" rx="19.7" ry="19.7"/>
      <path class="cls-2" d="M366.1,491.7h-16.5c1,1.8,1.9,3.8,2.8,5.8.2.5.4.9.6,1.4l4.8,11.5c.2.5.4,1,.6,1.5l-39.6.7c.1-6.9.3-13.8.6-20.8h-15.6c.4,6.8.6,13.7.8,20.6l-23.6-.7v9.5l23.8-.7c.3,19.4,0,39.1-1,58.8h15.6c-.6-19.6-.9-39.2-.7-58.9l39,.7c-4.6,4-11.4,10.9-18.3,21.5-10.8,17-11.3,26.7-5.6,32.9,13.6,14.6,31.3-7.6,41-18.9l.3.7c2.6,7.8,5,15.3,7.1,22.1h16.6c-9.8-22.8-25.3-65.9-32.6-87.5ZM343.2,565.2c-8.1-8.2,8.9-30.4,20.2-40.2.6,1.5,6.6,17.8,8.8,24.4l.2.6c-3.6,3.2-22.2,22.3-29.2,15.2Z"/>
      <path class="cls-1" d="M208.9,511.9h-9.1c.6,1,1,2.1,1.5,3.2.1.3.2.5.3.8l2.6,6.3c.1.3.2.5.3.8l-21.9.4c0-3.8.2-7.6.3-11.5h-8.6c.2,3.8.3,7.6.4,11.4l-13-.4v5.2l13.1-.4c.2,10.7,0,21.6-.5,32.5h8.6c-.3-10.8-.5-21.7-.4-32.5l21.5.4c-2.5,2.2-6.3,6-10.1,11.9-5.9,9.4-6.3,14.8-3.1,18.1,7.5,8,17.3-4.2,22.7-10.4v.4c1.6,4.3,2.9,8.4,4.1,12.2h9.2c-5.4-12.6-13.9-36.4-18-48.3ZM196.2,552.4c-4.5-4.5,4.9-16.8,11.1-22.2.3.8,3.6,9.8,4.9,13.5v.3c-1.9,1.8-12.1,12.3-16,8.4Z"/>
    </g>
  </g>
</svg>