<svg width="791" height="93" viewBox="0 0 791 93" fill="none" xmlns="http://www.w3.org/2000/svg">
<path d="M764 59.3002C759.5 46.2002 754.5 32.8002 749.5 20.3002C745.1 32.2002 739.9 46.2002 735.4 59.3002H764ZM711.5 89.2002C722.6 62.4002 735.5 33.9002 744.8 8.8002C743.7 6.3002 742.7 3.9002 741.4 1.7002H757.9C765.3 23.3002 780.8 66.5002 790.5 89.2002H773.9C771.8 82.3002 769.4 74.8002 766.8 67.1002H732.9C730.3 75.1002 728 82.9002 726.6 89.2002H711.5Z" fill="white"/>
<path d="M637.301 89.2002C638.801 60.1002 638.901 30.7002 637.301 1.7002H652.901C652.301 15.0002 651.901 28.2002 651.801 41.6002C662.901 29.8002 677.901 10.2002 683.801 1.7002H701.701C696.201 6.3002 667.201 37.5002 663.801 41.6002C691.601 46.2002 689.901 82.1002 708.101 84.4002V88.7002C673.601 96.5002 679.501 50.1002 651.801 45.7002C651.801 60.3002 652.201 74.8002 652.901 89.3002H637.301V89.2002Z" fill="white"/>
<path d="M552.5 89.2002C553.9 63.1002 554 36.7002 552.9 10.1002L547.4 1.7002H567.5L610.6 68.6002C611.1 46.7002 610.7 24.0002 609.6 1.7002H621.2C620.2 30.6002 620.1 59.8002 621.2 89.2002H607.8C594 66.8002 579.2 43.3002 563.7 22.2002C563.3 43.6002 564 67.6002 564.8 89.2002H552.4H552.5Z" fill="white"/>
<path d="M518.699 59.3002C514.199 46.2002 509.199 32.8002 504.199 20.3002C499.799 32.2002 494.599 46.2002 490.099 59.3002H518.699ZM466.199 89.2002C477.299 62.4002 490.199 33.9002 499.499 8.8002C498.399 6.3002 497.399 3.9002 496.099 1.7002H512.599C519.999 23.3002 535.499 66.5002 545.199 89.2002H528.599C526.499 82.3002 524.099 74.8002 521.499 67.1002H487.599C484.999 75.1002 482.699 82.9002 481.299 89.2002H466.199Z" fill="white"/>
<path d="M362.199 89.2002C365.199 61.3002 367.799 27.1002 369.599 1.7002H386.999L411.299 68.3002L434.399 1.7002H451.699C453.299 27.2002 456.699 65.1002 459.299 89.2002H443.199C442.599 64.7002 440.299 33.9002 438.899 17.9002H437.899L412.999 89.2002H405.499L378.399 17.9002H377.599C375.999 35.5002 375.199 68.9002 374.699 89.2002H362.199Z" fill="white"/>
<path d="M333 89.2002C334.5 59.7002 334.5 30.4002 333 1.7002H348.6C347.5 31.0002 347.7 60.2002 348.6 89.2002H333Z" fill="white"/>
<path d="M257.6 89.2002C259.1 60.1002 259.2 30.7002 257.6 1.7002H273.2C272.6 15.0002 272.2 28.2002 272.1 41.6002C283.2 29.8002 298.2 10.2002 304.1 1.7002H322C316.5 6.3002 287.5 37.5002 284.1 41.6002C311.9 46.2002 310.2 82.1002 328.4 84.4002V88.7002C293.9 96.5002 299.8 50.1002 272.1 45.7002C272.1 60.3002 272.5 74.8002 273.2 89.3002H257.6V89.2002Z" fill="white"/>
<path d="M72.6 0H19.7C8.81999 0 0 8.81997 0 19.7V72.6C0 83.48 8.81999 92.3 19.7 92.3H72.6C83.48 92.3 92.3 83.48 92.3 72.6V19.7C92.3 8.81997 83.48 0 72.6 0Z" fill="#ED475F"/>
<path d="M217.901 1.6001H201.401C202.401 3.4001 203.301 5.40009 204.201 7.40009C204.401 7.90009 204.601 8.30008 204.801 8.80008L209.601 20.3001C209.801 20.8001 210.001 21.3001 210.201 21.8001L170.601 22.5001C170.701 15.6001 170.901 8.70007 171.201 1.70007H155.601C156.001 8.50007 156.201 15.4001 156.401 22.3001L132.801 21.6001V31.1001L156.601 30.4001C156.901 49.8001 156.601 69.5001 155.601 89.2001H171.201C170.601 69.6001 170.301 50.0001 170.501 30.3001L209.501 31.0001C204.901 35.0001 198.101 41.9001 191.201 52.5001C180.401 69.5001 179.901 79.2001 185.601 85.4001C199.201 100 216.901 77.8001 226.601 66.5001L226.901 67.2001C229.501 75.0001 231.901 82.5001 234.001 89.3001H250.601C240.801 66.5001 225.301 23.4001 218.001 1.80008L217.901 1.6001ZM195.001 75.1001C186.901 66.9001 203.901 44.7001 215.201 34.9001C215.801 36.4001 221.801 52.7001 224.001 59.3001L224.201 59.9001C220.601 63.1001 202.001 82.2001 195.001 75.1001Z" fill="white"/>
<path d="M60.7 21.7998H51.6C52.2 22.7998 52.6 23.8998 53.1 24.9998C53.2 25.2998 53.3 25.4998 53.4 25.7998L56 32.0998C56.1 32.3998 56.2 32.5998 56.3 32.8998L34.4 33.2998C34.4 29.4998 34.6 25.6998 34.7 21.7998H26.1C26.3 25.5998 26.4 29.3998 26.5 33.1998L13.5 32.7998V37.9998L26.6 37.5998C26.8 48.2998 26.6 59.1998 26.1 70.0998H34.7C34.4 59.2998 34.2 48.3998 34.3 37.5998L55.8 37.9998C53.3 40.1998 49.5 43.9998 45.7 49.8998C39.8 59.2998 39.4 64.6998 42.6 67.9998C50.1 75.9998 59.9 63.7998 65.3 57.5998V57.9998C66.9 62.2998 68.2 66.3998 69.4 70.1998H78.6C73.2 57.5998 64.7 33.7998 60.6 21.8998L60.7 21.7998ZM48 62.2998C43.5 57.7998 52.9 45.4998 59.1 40.0998C59.4 40.8998 62.7 49.8998 64 53.5998V53.8998C62.1 55.6998 51.9 66.1998 48 62.2998Z" fill="white"/>
</svg>
