<svg width="824" height="94" viewBox="0 0 824 94" fill="none" xmlns="http://www.w3.org/2000/svg"><style>path[fill="#351F2F"]{fill:#fff}</style>
<path d="M258.979 92.5C260.452 63.899 260.574 35.0525 258.979 6.57422H274.322C273.709 19.5858 273.34 32.5974 273.218 45.7318C284.142 34.1932 298.873 14.9213 304.642 6.57422H322.195C316.794 11.116 288.316 41.681 285.002 45.7318C312.252 50.2736 310.657 85.5032 328.456 87.7127V91.8862C294.576 99.4968 300.346 53.9561 273.218 49.6599C273.218 64.0217 273.586 78.2608 274.322 92.5H258.979Z" fill="#351F2F"/>
<path d="M334.02 92.5C335.493 63.5307 335.493 34.9297 334.02 6.57422H349.241C348.504 27.8102 347.768 49.4143 348.136 70.5275L387.294 6.57422H399.569C398.464 35.4207 398.587 64.0217 399.569 92.5H384.348C385.575 70.5275 386.066 48.1868 385.452 26.7054L345.436 92.5H334.02Z" fill="#351F2F"/>
<path d="M414.92 92.5C417.866 65.1265 420.444 31.4927 422.163 6.57422H439.225L463.039 72.0005L485.748 6.57422H502.687C504.283 31.6154 507.597 68.809 510.175 92.5H494.34C493.726 68.4408 491.517 38.244 490.167 22.5319H489.185L464.757 92.5H457.392L430.755 22.5319H430.019C428.423 39.8398 427.686 72.6143 427.195 92.5H414.92Z" fill="#351F2F"/>
<path d="M566.609 63.1625C562.19 50.2736 557.28 37.1392 552.37 24.8641C548.074 36.5255 542.918 50.2736 538.499 63.1625H566.609ZM515.054 92.5C525.978 66.2312 538.622 38.244 547.705 13.571C546.601 11.116 545.619 8.78374 544.391 6.57422H560.594C567.836 27.8102 583.058 70.1593 592.632 92.5H576.306C574.22 85.7487 571.887 78.3836 569.31 70.773H536.044C533.466 78.6291 531.257 86.2397 529.906 92.5H515.054Z" fill="#351F2F"/>
<path d="M663.988 6.57422C662.883 35.298 663.129 64.0217 663.988 92.5H648.89C649.503 78.1381 649.872 65.0037 649.872 51.9921H614.028C614.151 64.881 614.397 77.8926 614.888 92.5H599.421C601.017 63.5307 601.017 34.807 599.421 6.57422H614.888C614.397 20.1996 614.151 32.4747 614.028 44.5043H649.872C649.872 32.352 649.503 19.9541 648.89 6.57422H663.988Z" fill="#351F2F"/>
<path d="M679.976 92.5C681.449 63.899 681.572 35.0525 679.976 6.57422H695.32C694.706 19.5858 694.338 32.5974 694.215 45.7318C705.14 34.1932 719.87 14.9213 725.64 6.57422H743.193C737.792 11.116 709.314 41.681 706 45.7318C733.25 50.2736 731.654 85.5032 749.453 87.7127V91.8862C715.574 99.4968 721.343 53.9561 694.215 49.6599C694.215 64.0217 694.584 78.2608 695.32 92.5H679.976Z" fill="#351F2F"/>
<path d="M797.367 63.1625C792.948 50.2736 788.037 37.1392 783.127 24.8641C778.831 36.5255 773.676 50.2736 769.257 63.1625H797.367ZM745.811 92.5C756.736 66.2312 769.379 38.244 778.463 13.571C777.358 11.116 776.376 8.78374 775.149 6.57422H791.352C798.594 27.8102 813.815 70.1593 823.39 92.5H807.064C804.977 85.7487 802.645 78.3836 800.067 70.773H766.802C764.224 78.6291 762.014 86.2397 760.664 92.5H745.811Z" fill="#351F2F"/>
<path d="M218.1 5H201.6C202.6 6.8 203.5 8.79999 204.4 10.8C204.6 11.3 204.8 11.7 205 12.2L209.8 23.7C210 24.2 210.2 24.7 210.4 25.2L170.8 25.9C170.9 19 171.1 12.1 171.4 5.09998H155.8C156.2 11.9 156.4 18.8 156.6 25.7L133 25V34.5L156.8 33.8C157.1 53.2 156.8 72.9 155.8 92.6H171.4C170.8 73 170.5 53.4 170.7 33.7L209.7 34.4C205.1 38.4 198.3 45.3 191.4 55.9C180.6 72.9 180.1 82.6 185.8 88.8C199.4 103.4 217.1 81.2 226.8 69.9L227.1 70.6C229.7 78.4 232.1 85.9 234.2 92.7H250.8C241 69.9 225.5 26.8 218.2 5.19998L218.1 5ZM195.2 78.5C187.1 70.3 204.1 48.1 215.4 38.3C216 39.8 222 56.1 224.2 62.7L224.4 63.3C220.8 66.5 202.2 85.6 195.2 78.5Z" fill="#EC4760"/>
<path d="M72.6 0H19.7C8.81999 0 0 8.81997 0 19.7V72.6C0 83.48 8.81999 92.3 19.7 92.3H72.6C83.48 92.3 92.3 83.48 92.3 72.6V19.7C92.3 8.81997 83.48 0 72.6 0Z" fill="#EC4760"/>
<path d="M60.7 21.7998H51.6C52.2 22.7998 52.6 23.8998 53.1 24.9998C53.2 25.2998 53.3 25.4998 53.4 25.7998L56 32.0998C56.1 32.3998 56.2 32.5998 56.3 32.8998L34.4 33.2998C34.4 29.4998 34.6 25.6998 34.7 21.7998H26.1C26.3 25.5998 26.4 29.3998 26.5 33.1998L13.5 32.7998V37.9998L26.6 37.5998C26.8 48.2998 26.6 59.1998 26.1 70.0998H34.7C34.4 59.2998 34.2 48.3998 34.3 37.5998L55.8 37.9998C53.3 40.1998 49.5 43.9998 45.7 49.8998C39.8 59.2998 39.4 64.6998 42.6 67.9998C50.1 75.9998 59.9 63.7998 65.3 57.5998V57.9998C66.9 62.2998 68.2 66.3998 69.4 70.1998H78.6C73.2 57.5998 64.7 33.7998 60.6 21.8998L60.7 21.7998ZM48 62.2998C43.5 57.7998 52.9 45.4998 59.1 40.0998C59.4 40.8998 62.7 49.8998 64 53.5998V53.8998C62.1 55.6998 51.9 66.1998 48 62.2998Z" fill="white"/>
</svg>
